# xmcd CD Database Entry
#
# Track frame offsets:
# 150
# 17488
# 33040
# 53249
# 73442
# 86200
# 111322
# 135069
# 152856
# 188456
# 208241
# 230376
# 244881
# 267756
# 285857
# 302136
#
# Disc length: 4337 seconds
#
# Revision: 20
# Processed by: cddbd v1.4PL0 Copyright (c) Steve Scherf et al.
# Submitted via: tcd 2.0b
#
DISCID=d610ef10
DTITLE=2pac, BTNH, Eazy E etc
DYEAR=1900
DGENRE=
TTITLE0=Cross roads
TTITLE1=This DJ
TTITLE2=Straight Outta Compton
TTITLE3=Hip Hop Hooray
TTITLE4=Wrong Nigga to fuck wit
TTITLE5=real Muthafuckin G's
TTITLE6=First of the month
TTITLE7=Why do Good Girls...
TTITLE8=Down To the last Roach
TTITLE9=East 1999
TTITLE10=Natural Born Killas
TTITLE11=Nutz on yo Chin
TTITLE12=Life Goes on
TTITLE13=Rather Fuck you
TTITLE14=Boom Biddy Bye Bye
TTITLE15=damn it feels good to be a Gangster
EXTD=
EXTT0=
EXTT1=
EXTT2=
EXTT3=
EXTT4=
EXTT5=
EXTT6=
EXTT7=
EXTT8=
EXTT9=
EXTT10=
EXTT11=
EXTT12=
EXTT13=
EXTT14=
EXTT15=
PLAYORDER=
